<?xml version="1.0" encoding="UTF-8"?>
<svg id="_Слой_2" data-name="Слой 2" xmlns="http://www.w3.org/2000/svg" viewBox="0 0 527 384.13">
  <defs>
    <style>
      .cls-1 {
        fill: #cc6d2d;
      }

      .cls-2 {
        fill: #6c2a17;
      }
    </style>
  </defs>
  <g id="_Слой_1-2" data-name="Слой 1">
    <g>
      <g>
        <path class="cls-2" d="m121.27,374.71c-1.66,0-2.99-.29-4.01-.86s-1.8-1.22-2.34-1.95-.97-1.33-1.27-1.82h-.47v4.05h-4.08v-34.92h4.22v12.91h.33c.3-.47.71-1.06,1.24-1.77s1.3-1.35,2.3-1.91,2.35-.84,4.05-.84c2.19,0,4.11.55,5.78,1.64s2.97,2.65,3.91,4.68,1.42,4.42,1.42,7.18-.47,5.19-1.41,7.22-2.24,3.6-3.9,4.71-3.59,1.66-5.78,1.66Zm-.63-3.77c1.64,0,3.01-.44,4.11-1.32s1.93-2.07,2.48-3.56.83-3.15.83-4.98-.27-3.45-.82-4.91-1.37-2.62-2.47-3.48-2.48-1.29-4.14-1.29-2.96.41-4.05,1.22-1.92,1.94-2.47,3.39-.83,3.14-.83,5.07.28,3.65.84,5.13,1.39,2.64,2.5,3.48,2.44,1.25,4.02,1.25Z"/>
        <path class="cls-2" d="m146.3,374.75c-1.66,0-3.16-.31-4.51-.94s-2.43-1.54-3.22-2.74-1.2-2.66-1.2-4.38c0-1.5.3-2.72.89-3.66s1.39-1.68,2.38-2.21,2.09-.94,3.29-1.21,2.41-.48,3.63-.63c1.56-.2,2.84-.36,3.82-.47s1.71-.3,2.19-.56.71-.72.71-1.36v-.14c0-1.09-.2-2.02-.61-2.78s-1.02-1.34-1.83-1.75-1.83-.61-3.05-.61-2.32.2-3.21.59-1.61.88-2.17,1.46-.97,1.18-1.25,1.79l-4.05-1.34c.67-1.59,1.58-2.84,2.72-3.74s2.4-1.54,3.77-1.91,2.73-.56,4.08-.56c.88,0,1.87.11,2.99.32s2.2.63,3.23,1.25,1.9,1.55,2.58,2.78,1.02,2.86,1.02,4.91v17.27h-4.15v-3.56h-.28c-.3.61-.77,1.24-1.43,1.89s-1.51,1.19-2.55,1.63-2.31.66-3.8.66Zm.73-3.73c1.56,0,2.88-.3,3.96-.91s1.9-1.4,2.46-2.38.84-2,.84-3.06v-3.63c-.17.2-.55.39-1.12.55s-1.24.31-1.98.43-1.46.23-2.16.32-1.25.15-1.65.2c-1.02.12-1.96.34-2.85.64s-1.59.75-2.12,1.34-.8,1.38-.8,2.38c0,.91.23,1.66.7,2.27s1.11,1.07,1.92,1.38,1.74.47,2.79.47Z"/>
        <path class="cls-2" d="m165.92,374.14v-34.92h4.22v34.92h-4.22Zm3.96-9.42v-5.23h.77l11.2-11.55h5.23l-12.12,12.45h-.47l-4.62,4.34Zm12.61,9.42l-10.03-12.82,3-2.98,12.45,15.8h-5.41Z"/>
        <path class="cls-2" d="m202.2,374.71c-2.53,0-4.71-.56-6.55-1.69s-3.25-2.7-4.24-4.71-1.49-4.37-1.49-7.05.48-5.05,1.45-7.1,2.34-3.65,4.11-4.8,3.85-1.73,6.22-1.73c1.39,0,2.76.23,4.11.69s2.58,1.2,3.68,2.23,1.98,2.37,2.64,4.04.98,3.72.98,6.14v1.76h-20.34v-3.56h18.07l-1.97,1.31c0-1.72-.27-3.25-.81-4.58s-1.34-2.38-2.4-3.14-2.38-1.14-3.96-1.14-2.93.39-4.05,1.16-1.98,1.78-2.58,3.02-.89,2.57-.89,4v2.37c0,1.94.34,3.58,1.01,4.93s1.61,2.38,2.82,3.07,2.61,1.04,4.21,1.04c1.03,0,1.97-.15,2.81-.45s1.57-.75,2.18-1.35,1.08-1.35,1.41-2.24l4.08,1.12c-.41,1.31-1.09,2.47-2.06,3.47s-2.17,1.78-3.6,2.34-3.04.84-4.84.84Z"/>
        <path class="cls-2" d="m219.17,374.14v-26.2h4.08v4.03h.28c.48-1.33,1.35-2.39,2.59-3.2s2.64-1.21,4.21-1.21c.31,0,.68,0,1.11.02s.77.03,1.02.05v4.24c-.12-.03-.44-.08-.94-.14s-1.03-.09-1.59-.09c-1.25,0-2.37.26-3.36.79s-1.77,1.24-2.33,2.16-.84,1.96-.84,3.15v16.41h-4.22Z"/>
        <path class="cls-2" d="m237.57,383.64l1.08-3.66.45.12c.86.22,1.64.28,2.34.18s1.34-.45,1.9-1.04,1.05-1.52,1.48-2.77l.75-2.18-10.01-26.34h4.62l5.58,15.54c.59,1.62,1.09,3.23,1.5,4.83s.84,3.14,1.29,4.64h-1.55c.45-1.5.89-3.05,1.3-4.65s.91-3.21,1.49-4.82l5.62-15.54h4.59l-11.51,30.12c-.53,1.39-1.17,2.54-1.91,3.43s-1.61,1.56-2.59,1.99-2.09.64-3.33.64c-.75,0-1.4-.05-1.95-.16s-.93-.22-1.15-.33Z"/>
        <path class="cls-2" d="m288.36,374.61c-2.3,0-4.28-.43-5.95-1.28s-2.96-2-3.86-3.45-1.35-3.07-1.35-4.86c0-1.53.31-2.85.94-3.96s1.49-2.14,2.59-3.09,2.35-1.95,3.74-2.98l5.18-3.82c.42-.31.88-.69,1.38-1.12s.93-.96,1.28-1.57.53-1.32.53-2.13c0-1.11-.37-2.02-1.11-2.74s-1.75-1.08-3.01-1.08c-.88,0-1.65.18-2.32.54s-1.19.86-1.56,1.49-.55,1.37-.55,2.21.2,1.71.6,2.51.94,1.62,1.63,2.48,1.47,1.82,2.34,2.88l16.08,19.5h-5.09l-13.24-15.89c-1.25-1.52-2.37-2.87-3.36-4.07s-1.77-2.38-2.34-3.55-.86-2.45-.86-3.84c0-1.55.35-2.91,1.05-4.1s1.7-2.12,2.99-2.79,2.79-1.01,4.51-1.01,3.26.34,4.52,1.02,2.24,1.59,2.93,2.72,1.03,2.39,1.03,3.79c0,1.06-.2,2.05-.6,2.95s-.95,1.74-1.64,2.51-1.5,1.48-2.4,2.16l-6.98,5.18c-1.44,1.06-2.45,2.05-3.04,2.96s-.88,1.91-.88,2.99c0,1.14.27,2.14.82,3.01s1.31,1.54,2.3,2.03,2.12.73,3.4.73c1.39,0,2.73-.29,4.01-.86s2.43-1.39,3.45-2.45,1.82-2.34,2.41-3.84.89-3.19.89-5.06h4.05c0,2.31-.27,4.21-.8,5.7s-1.14,2.66-1.82,3.52-1.25,1.51-1.7,1.95l-.84,1.05c-1.14,1.23-2.57,2.16-4.28,2.77s-3.4.91-5.07.91Z"/>
        <path class="cls-2" d="m333.54,374.71c-2.38,0-4.46-.56-6.25-1.69s-3.18-2.7-4.18-4.73-1.5-4.39-1.5-7.08.5-5.12,1.5-7.16,2.39-3.62,4.18-4.75,3.87-1.69,6.25-1.69c1.27,0,2.46.16,3.59.49s2.15.8,3.08,1.42,1.73,1.38,2.4,2.27,1.19,1.92,1.55,3.06l-4.05,1.15c-.19-.67-.48-1.29-.87-1.85s-.86-1.05-1.42-1.46-1.19-.73-1.91-.96-1.51-.34-2.37-.34c-1.75,0-3.19.46-4.31,1.37s-1.96,2.11-2.51,3.6-.82,3.1-.82,4.85.27,3.32.82,4.79,1.38,2.67,2.51,3.57,2.56,1.36,4.31,1.36c.88,0,1.68-.12,2.41-.35s1.39-.57,1.96-1,1.05-.94,1.44-1.54.68-1.24.87-1.95l4.03,1.15c-.34,1.17-.86,2.21-1.54,3.13s-1.49,1.7-2.43,2.34-1.98,1.14-3.12,1.48-2.35.5-3.63.5Z"/>
        <path class="cls-2" d="m358.11,374.75c-1.66,0-3.16-.31-4.51-.94s-2.43-1.54-3.22-2.74-1.2-2.66-1.2-4.38c0-1.5.3-2.72.89-3.66s1.39-1.68,2.38-2.21,2.09-.94,3.29-1.21,2.41-.48,3.63-.63c1.56-.2,2.84-.36,3.82-.47s1.71-.3,2.19-.56.71-.72.71-1.36v-.14c0-1.09-.2-2.02-.61-2.78s-1.02-1.34-1.83-1.75-1.83-.61-3.05-.61-2.32.2-3.21.59-1.61.88-2.17,1.46-.97,1.18-1.25,1.79l-4.05-1.34c.67-1.59,1.58-2.84,2.72-3.74s2.4-1.54,3.77-1.91,2.73-.56,4.08-.56c.88,0,1.87.11,2.99.32s2.2.63,3.23,1.25,1.9,1.55,2.58,2.78,1.02,2.86,1.02,4.91v17.27h-4.15v-3.56h-.28c-.3.61-.77,1.24-1.43,1.89s-1.51,1.19-2.55,1.63-2.31.66-3.8.66Zm.73-3.73c1.56,0,2.88-.3,3.96-.91s1.9-1.4,2.46-2.38.84-2,.84-3.06v-3.63c-.17.2-.55.39-1.12.55s-1.24.31-1.98.43-1.46.23-2.16.32-1.25.15-1.65.2c-1.02.12-1.96.34-2.85.64s-1.59.75-2.12,1.34-.8,1.38-.8,2.38c0,.91.23,1.66.7,2.27s1.11,1.07,1.92,1.38,1.74.47,2.79.47Z"/>
        <path class="cls-2" d="m389.91,347.94v3.61h-15.42v-3.61h15.42Zm-10.27,26.2v-29.7c0-1.52.36-2.78,1.07-3.8s1.64-1.78,2.78-2.3,2.34-.77,3.61-.77c1,0,1.83.08,2.48.25s1.14.32,1.45.46l-1.17,3.61c-.22-.08-.5-.16-.86-.26s-.82-.14-1.42-.14c-1.3,0-2.24.33-2.84,1s-.89,1.63-.89,2.89v28.76h-4.22Z"/>
        <path class="cls-2" d="m405.1,374.71c-2.53,0-4.71-.56-6.55-1.69s-3.25-2.7-4.24-4.71-1.49-4.37-1.49-7.05.48-5.05,1.45-7.1,2.34-3.65,4.11-4.8,3.85-1.73,6.22-1.73c1.39,0,2.76.23,4.11.69s2.58,1.2,3.68,2.23,1.98,2.37,2.64,4.04.98,3.72.98,6.14v1.76h-20.34v-3.56h18.07l-1.97,1.31c0-1.72-.27-3.25-.81-4.58s-1.34-2.38-2.4-3.14-2.38-1.14-3.96-1.14-2.93.39-4.05,1.16-1.98,1.78-2.58,3.02-.89,2.57-.89,4v2.37c0,1.94.34,3.58,1.01,4.93s1.61,2.38,2.82,3.07,2.61,1.04,4.21,1.04c1.03,0,1.97-.15,2.81-.45s1.57-.75,2.18-1.35,1.08-1.35,1.41-2.24l4.08,1.12c-.41,1.31-1.09,2.47-2.06,3.47s-2.17,1.78-3.6,2.34-3.04.84-4.84.84Z"/>
      </g>
      <g>
        <path class="cls-2" d="m50.98,284.77h22.64v10h-22.64v-10Z"/>
        <path class="cls-2" d="m148.08,288.25c1.81,2.37,2.72,5.29,2.72,8.76,0,4.91-1.91,8.68-5.72,11.32-3.81,2.64-9.37,3.96-16.68,3.96h-28.96v-56h27.36c6.83,0,12.07,1.31,15.72,3.92,3.65,2.61,5.48,6.16,5.48,10.64,0,2.72-.65,5.15-1.96,7.28-1.31,2.13-3.13,3.81-5.48,5.04,3.2,1.01,5.71,2.71,7.52,5.08Zm-35.76-22.2v13.2h12.88c3.2,0,5.63-.56,7.28-1.68,1.65-1.12,2.48-2.77,2.48-4.96s-.83-3.83-2.48-4.92c-1.65-1.09-4.08-1.64-7.28-1.64h-12.88Zm22.84,34.8c1.73-1.12,2.6-2.85,2.6-5.2,0-4.64-3.44-6.96-10.32-6.96h-15.12v13.84h15.12c3.41,0,5.99-.56,7.72-1.68Z"/>
        <path class="cls-2" d="m166.84,306.61c-4.45-4.43-6.68-10.75-6.68-18.96v-31.36h12.96v30.88c0,10.03,4.16,15.04,12.48,15.04,4.05,0,7.15-1.21,9.28-3.64,2.13-2.43,3.2-6.23,3.2-11.4v-30.88h12.8v31.36c0,8.21-2.23,14.53-6.68,18.96-4.45,4.43-10.68,6.64-18.68,6.64s-14.23-2.21-18.68-6.64Z"/>
        <path class="cls-2" d="m234.32,266.85h-17.92v-10.56h48.8v10.56h-17.92v45.44h-12.96v-45.44Z"/>
        <path class="cls-2" d="m284.56,266.85h-17.92v-10.56h48.8v10.56h-17.92v45.44h-12.96v-45.44Z"/>
        <path class="cls-2" d="m365.76,301.89v10.4h-43.36v-56h42.32v10.4h-29.44v12.16h26v10.08h-26v12.96h30.48Z"/>
        <path class="cls-2" d="m411.76,312.29l-10.8-15.6h-11.92v15.6h-12.96v-56h24.24c4.96,0,9.27.83,12.92,2.48,3.65,1.65,6.47,4,8.44,7.04,1.97,3.04,2.96,6.64,2.96,10.8s-1,7.75-3,10.76c-2,3.01-4.84,5.32-8.52,6.92l12.56,18h-13.92Zm-3.28-42.92c-2.03-1.68-4.99-2.52-8.88-2.52h-10.56v19.52h10.56c3.89,0,6.85-.85,8.88-2.56,2.03-1.71,3.04-4.11,3.04-7.2s-1.01-5.56-3.04-7.24Z"/>
        <path class="cls-2" d="m451.5,284.77h22.64v10h-22.64v-10Z"/>
      </g>
      <g>
        <path class="cls-1" d="m134.19,99.69c-.09,0-.19,0-.29-.02-1.09-.16-1.85-1.17-1.7-2.26,1.9-13.26,8.23-21.55,13.81-28.86,4.58-6,8.54-11.18,9.27-17.99.24-2.27.04-4.59-.34-6.9-.83.97-1.74,1.87-2.63,2.76-1.43,1.43-2.79,2.78-3.77,4.32-2.98,4.68-3.34,8.71-1.06,11.98.63.91.41,2.15-.5,2.78-.91.63-2.15.41-2.78-.5-3.25-4.66-2.91-10.34.96-16.42,1.22-1.91,2.79-3.48,4.31-5,1.91-1.91,3.71-3.71,4.56-5.93l2.39-6.23,1.43,6.52c.88,3.99,1.87,8.52,1.39,13.03-.84,7.92-5.32,13.78-10.06,19.99-5.55,7.26-11.28,14.77-13.03,27-.14,1-1,1.72-1.98,1.72Z"/>
        <path class="cls-1" d="m153.34,85.29c-4.03,0-7.01-1.6-9.12-2.74-.86-.46-1.83-.99-2.27-1.02-1.1-.08-1.93-1.04-1.85-2.14.08-1.1,1.04-1.93,2.14-1.85,1.29.1,2.49.74,3.88,1.49,2.41,1.3,5.41,2.91,9.78,1.98,3.49-.74,5.57-2.68,7.77-4.73.74-.69,1.48-1.38,2.29-2.04-6.25-1.25-14.73-2.92-18.83-.33-.93.59-2.17.31-2.76-.62-.59-.93-.31-2.17.62-2.76,5.48-3.46,14.58-1.64,21.89-.18,1.85.37,3.59.72,5.07.94l8.35,1.23-8.02,2.64c-2.38.78-4,2.3-5.88,4.05-2.38,2.22-5.09,4.74-9.66,5.71-1.21.26-2.34.37-3.39.37Z"/>
        <path class="cls-1" d="m158.28,66.44c-.57,0-1.14-.24-1.53-.71-.71-.85-.6-2.11.25-2.82,2.33-1.96,4.43-3.59,6.29-5.03,7.22-5.62,11.2-8.71,15.38-20.24.78-2.15,1.13-4.45,1.31-6.78-1.04.74-2.13,1.4-3.2,2.05-1.74,1.05-3.37,2.04-4.7,3.3-3.35,3.2-4.52,8.45-2.84,12.77.4,1.03-.11,2.19-1.14,2.59-1.03.4-2.19-.11-2.59-1.14-2.24-5.79-.68-12.82,3.81-17.11,1.64-1.57,3.55-2.72,5.39-3.84,2.3-1.39,4.48-2.71,5.84-4.66l3.81-5.48-.17,6.67c-.1,4.09-.22,8.72-1.76,12.99-4.57,12.62-9.39,16.37-16.68,22.04-1.83,1.42-3.9,3.03-6.17,4.94-.37.31-.83.47-1.29.47Z"/>
        <path class="cls-1" d="m183.49,67.4c-.21,0-.42,0-.64-.03-2.73-.22-6.18-1.6-8.95-2.71-1.04-.42-2.03-.81-2.72-1.04-1.05-.34-1.62-1.47-1.28-2.52.34-1.05,1.47-1.62,2.52-1.28.82.27,1.82.67,2.97,1.13,2.52,1.01,5.67,2.27,7.79,2.44,2.13.18,3.77-1.61,6.21-4.57,1.08-1.31,2.24-2.71,3.57-3.85-4.99-1.07-10.29-.81-15.11.8-1.05.35-2.18-.22-2.53-1.26-.35-1.05.22-2.18,1.26-2.53,7.27-2.43,15.5-2.16,22.59.74l7.82,3.19-8.42.65c-2.27.18-4.13,2.43-6.09,4.81-2.34,2.84-4.98,6.04-8.99,6.04Z"/>
        <path class="cls-1" d="m185.37,48.93c-.57,0-1.14-.24-1.53-.71-.71-.85-.6-2.11.25-2.82,2.33-1.96,4.43-3.59,6.29-5.03,7.22-5.62,11.2-8.71,15.38-20.24.78-2.15,1.13-4.45,1.31-6.78-1.04.74-2.13,1.4-3.2,2.05-1.74,1.05-3.37,2.04-4.7,3.3-3.35,3.2-4.52,8.45-2.84,12.77.4,1.03-.11,2.19-1.14,2.59-1.03.4-2.19-.11-2.59-1.14-2.24-5.78-.68-12.82,3.81-17.11,1.64-1.57,3.55-2.72,5.39-3.84,2.31-1.39,4.48-2.71,5.84-4.66l3.81-5.48-.17,6.67c-.1,4.09-.22,8.72-1.76,12.99-4.57,12.62-9.39,16.37-16.68,22.04-1.83,1.42-3.9,3.03-6.17,4.94-.37.31-.83.47-1.29.47Z"/>
        <path class="cls-1" d="m210.58,49.89c-.21,0-.42,0-.64-.03-3.8-.31-7.37-1.66-9.98-2.65-.76-.29-1.45-.55-2.03-.74-1.05-.34-1.62-1.47-1.28-2.52.34-1.05,1.47-1.62,2.52-1.28.64.21,1.38.49,2.21.8,2.52.95,5.66,2.14,8.89,2.4,2.14.18,3.77-1.61,6.21-4.57,1.08-1.31,2.24-2.71,3.57-3.85-4.99-1.07-10.29-.81-15.11.8-1.05.35-2.18-.22-2.53-1.26-.35-1.05.22-2.18,1.26-2.53,7.27-2.43,15.5-2.16,22.59.74l7.82,3.19-8.42.65c-2.27.18-4.13,2.43-6.09,4.81-2.34,2.84-4.98,6.04-8.99,6.04Z"/>
        <path class="cls-1" d="m211.63,29.85l.22-2.64c1.06-12.48,7.13-14.67,11.56-16.27.67-.24,1.32-.47,1.94-.74.98-.42,1.88-.75,2.68-1.05,2.87-1.06,4.76-1.75,7.72-5.36l3.11-3.79.42,4.89c.53,6.09-.84,17.07-6.76,20.64-4.15,2.51-7.43,2.72-11.22,2.97-2.02.13-4.32.29-7.08.83l-2.6.51Zm23.69-19.97c-2.05,1.61-3.89,2.29-5.91,3.03-.79.29-1.6.59-2.48.97-.71.31-1.45.57-2.16.83-3.77,1.36-7.35,2.65-8.61,10.26,1.83-.25,3.43-.35,4.89-.45,3.54-.23,6.1-.4,9.42-2.41,2.75-1.66,4.46-6.96,4.85-12.23Z"/>
      </g>
      <g>
        <path class="cls-1" d="m391.72,98.86c-.74,0-1.45-.41-1.8-1.13-.48-1-.95-1.98-1.42-2.94-5.68-11.82-9.78-20.37-22.85-23.89-2.15-.58-4.4-.72-6.74-.74.59.7,1.14,1.4,1.68,2.1,1.36,1.73,2.64,3.37,4.37,4.87,3.97,3.47,9.89,4.45,15.15,4.95,1.1.1,1.91,1.08,1.8,2.18-.1,1.1-1.08,1.91-2.18,1.8-5.9-.56-12.58-1.7-17.4-5.92-2.01-1.75-3.47-3.62-4.88-5.42-1.43-1.82-2.78-3.54-4.59-5l-4.48-3.6,5.75.04c.75,0,1.5,0,2.25,0,3.38-.02,6.88-.05,10.32.88,14.84,4,19.51,13.71,25.42,26.02.46.96.93,1.93,1.41,2.92.48.99.07,2.19-.92,2.67-.28.14-.58.2-.87.2Z"/>
        <path class="cls-1" d="m388.92,80.82c-.23,0-.46-.04-.68-.12-1.04-.38-1.57-1.53-1.2-2.56.94-2.58,1.37-6.71.93-9.02-.7-3.7-1.87-6.62-3.5-9.6-.17,3.77-.24,7.44.02,11.23.08,1.1-.75,2.06-1.85,2.14-1.11.08-2.06-.75-2.14-1.85-.36-5.16-.12-10,.14-15.12.05-1.02.1-2.05.15-3.09l.28-6.27,3.4,5.27c3.57,5.54,6.19,9.98,7.43,16.57.56,2.99.08,7.88-1.11,11.13-.3.81-1.06,1.32-1.88,1.32Z"/>
        <path class="cls-1" d="m376.62,67.49l-2.37-.64c-.81-.22-2-.42-3.39-.64-4.73-.78-11.88-1.95-16.36-6.24-1.97-1.89-3.46-3.83-4.77-5.55-2.41-3.15-4.32-5.64-8.35-7.21l-5.05-1.97,5.11-1.79c7.48-2.61,15.56-4.34,23.92.68,7.88,4.73,11.93,12.16,11.41,20.9l-.15,2.45Zm-29.42-21.62c2.38,1.76,4.01,3.9,5.71,6.12,1.28,1.68,2.61,3.41,4.37,5.09,3.58,3.43,9.74,4.45,14.24,5.19.45.07.87.14,1.28.21-.4-7.78-5.26-12.37-9.49-14.91-5.25-3.15-10.38-3.17-16.11-1.7Z"/>
      </g>
      <g>
        <path class="cls-1" d="m274.47,215.42c-14.18,0-23.85-13.73-26.62-22.38-.34-1.05.24-2.18,1.3-2.51,1.05-.34,2.18.24,2.51,1.3,2.6,8.14,11.39,19.59,22.81,19.59,3.38,0,7.37-2.65,7.64-6.21.37-4.91,1.34-8.6,2.88-10.98,7.38-11.41,21.12-32.65,26.85-59.19,8.43-39.06,2.43-58.83-4.1-68.53-4.27-6.36-10.15-10.36-17-11.56-14-2.47-25.89-1.56-39.65-.51-2.01.15-4.06.31-6.16.46-31.69,2.24-31.69,21.76-31.69,28.17,0,1.1-.9,2-2,2s-2-.9-2-2c0-19.68,11.91-30.5,35.41-32.16,2.09-.15,4.13-.3,6.14-.46,14.03-1.07,26.16-1.99,40.65.56,7.94,1.4,14.73,5.99,19.63,13.27,6.96,10.35,13.42,31.17,4.69,71.6-5.88,27.25-19.88,48.89-27.4,60.52-1.16,1.79-1.94,4.94-2.25,9.11-.45,5.92-6.37,9.9-11.63,9.9Z"/>
        <path class="cls-1" d="m320.46,208.12c-.25,0-.49,0-.74-.02-2.81-.15-13.08-1.12-27.21-7.27-1.01-.44-1.48-1.62-1.03-2.63.44-1.01,1.62-1.48,2.63-1.03,13.52,5.89,23.19,6.81,25.83,6.95.17,0,.34.01.51.01,13.13,0,32.31-26.37,39.8-54.92,6.28-23.95,8.77-42.43.55-54.77-6.2-9.32-18.34-14.96-38.21-17.76-1.09-.15-1.86-1.17-1.7-2.26.15-1.09,1.16-1.86,2.26-1.7,21.08,2.97,34.1,9.16,40.98,19.5,9.04,13.59,6.54,33.01-.01,58-7.26,27.7-26.83,57.9-43.65,57.91Z"/>
        <path class="cls-1" d="m365.27,212.28c-10.72,0-23.8-4.44-33.36-9.68-.97-.53-1.32-1.75-.79-2.71.53-.97,1.75-1.32,2.72-.79,14.25,7.81,30.82,11.16,39.4,7.96,10.74-4,18.24-14.86,22.29-32.26,8.87-38.12.72-42.36-21.05-53.72-1.93-1.01-3.97-2.07-6.09-3.21-.97-.52-1.34-1.73-.82-2.71.52-.97,1.73-1.34,2.71-.82,2.12,1.13,4.14,2.19,6.06,3.19,22.43,11.7,32.67,17.03,23.1,58.17-4.37,18.79-12.71,30.6-24.79,35.1-2.75,1.02-5.93,1.48-9.35,1.48Z"/>
        <path class="cls-1" d="m400.18,211.6c-6.33,0-12.67-1.56-18.21-4.62-.97-.53-1.32-1.75-.78-2.72.53-.97,1.75-1.32,2.72-.78,8.17,4.51,18.32,5.38,27.14,2.32,5.28-1.83,9.42-4.91,11.65-8.66,2.54-4.26,2.5-9.63-.09-13.06-1.11-1.47-2.66-2.63-4.3-3.86l-.72-.55c-7.23-5.49-13.43-12.11-18.44-19.67-.61-.92-.36-2.16.56-2.77.92-.61,2.16-.36,2.77.56,4.76,7.19,10.65,13.48,17.52,18.69l.71.53c1.79,1.34,3.64,2.73,5.09,4.65,3.55,4.69,3.69,11.89.34,17.52-3.48,5.85-9.42,8.88-13.78,10.4-3.9,1.35-8.04,2.02-12.17,2.02Z"/>
        <path class="cls-1" d="m119.84,211.78c-3.11,0-6.05-.39-8.58-1.27-3.95-1.37-9.33-4.12-12.49-9.43-3.05-5.12-2.92-11.69.32-15.96,1.32-1.74,2.99-3,4.61-4.22l.63-.48c6.38-4.84,11.92-10.68,16.03-16.89.61-.92,1.85-1.17,2.77-.56.92.61,1.17,1.85.56,2.77-4.35,6.58-10.21,12.75-16.94,17.87l-.65.49c-1.46,1.1-2.85,2.14-3.83,3.43-2.28,3.01-2.31,7.74-.07,11.5,1.98,3.33,5.66,6.07,10.36,7.7,7.73,2.68,20.58-.11,28.04-4.23.97-.53,2.18-.18,2.72.78.53.97.18,2.18-.78,2.72-6.01,3.32-14.89,5.77-22.71,5.77Z"/>
        <path class="cls-1" d="m263.94,114.93c-1.1,0-2-.9-2-2,0-26.67-13.16-40.58-21-46.5-7.21-5.44-13.68-6.97-15.99-6.31-1.06.3-2.17-.31-2.47-1.38-.3-1.06.31-2.17,1.38-2.47,4.39-1.25,12.4,1.62,19.49,6.97,6.79,5.13,22.59,20.24,22.59,49.7,0,1.1-.9,2-2,2Z"/>
        <path class="cls-1" d="m280.07,177.25c-.27,0-.55-.06-.82-.18-1.01-.45-1.46-1.63-1.01-2.64,26.79-59.81,23.02-89.29,15.13-103.49-5.5-9.9-14.68-15.79-27.3-17.51-1.09-.15-1.86-1.16-1.71-2.25.15-1.09,1.16-1.86,2.25-1.71,13.74,1.88,24.2,8.63,30.25,19.53,11.94,21.51,6.77,58.53-14.98,107.07-.33.74-1.06,1.18-1.83,1.18Z"/>
        <path class="cls-1" d="m172.23,173.88c-.9,0-1.71-.61-1.94-1.52-8.56-34.33-27-33.03-27.78-32.96-1.1.1-2.07-.7-2.18-1.79-.11-1.09.68-2.07,1.77-2.19.92-.1,22.62-1.94,32.07,35.98.27,1.07-.39,2.16-1.46,2.42-.16.04-.32.06-.49.06Z"/>
        <path class="cls-1" d="m216.47,210.44c-1.23,0-2.42-.04-3.55-.13-10.27-.75-16.72-4.39-16.85-9.51-1.53-61.22-35.88-78.06-36.22-78.22-1-.47-1.43-1.66-.96-2.66.47-1,1.65-1.43,2.65-.97,1.51.7,36.94,17.88,38.53,81.75.06,2.26,4.68,5,13.14,5.62,12.82.94,32.89-3.48,35.65-19.48,3.9-22.64-8.54-59.75-27.18-81.03-8.5-9.71-17.13-14.69-24.93-14.39-24.48.94-49.18,11.99-49.18,34.56,0,9.9-6.09,15.9-11.98,21.69-7.11,6.99-13.82,13.6-10.99,27.15,2.84,13.57,8.24,22.38,16.51,26.93,10.39,5.72,25.54,4.71,46.32-3.09,1.03-.39,2.19.14,2.57,1.17.39,1.03-.14,2.19-1.17,2.58-21.94,8.23-38.18,9.16-49.65,2.85-9.36-5.15-15.41-14.84-18.5-29.62-3.28-15.69,4.89-23.73,12.1-30.82,5.55-5.46,10.79-10.62,10.79-18.84,0-25.23,26.63-37.54,53.02-38.56,9.05-.35,18.77,5.1,28.09,15.75,19.32,22.06,32.2,60.69,28.12,84.35-2.96,17.14-22.16,22.92-36.33,22.92Z"/>
        <path class="cls-1" d="m336.72,162.05c-.29,0-.58-.06-.85-.19-1-.47-1.43-1.67-.95-2.66,14.37-30.37,14.19-50.48,11.51-61.99-2.88-12.34-9.17-17.69-9.23-17.74-.85-.7-.97-1.96-.27-2.81.7-.85,1.95-.98,2.81-.28,1.14.93,27.64,23.57-1.2,84.54-.34.72-1.06,1.15-1.81,1.15Z"/>
        <path class="cls-1" d="m352.22,210.45c-.79,0-1.54-.47-1.85-1.24-.42-1.02.07-2.19,1.09-2.61.26-.11,24.56-10.56,31.37-46.91.2-1.08,1.25-1.8,2.33-1.6,1.09.2,1.8,1.25,1.6,2.33-7.23,38.62-32.7,49.44-33.78,49.88-.25.1-.5.15-.76.15Z"/>
      </g>
      <path class="cls-1" d="m78.85,245.44c-.21,0-.43-.03-.64-.1C27.78,228.41,0,205.61,0,181.13c0-31.56,46.59-60.2,124.63-76.62,1.08-.23,2.14.46,2.37,1.55.23,1.08-.46,2.14-1.55,2.37-36.71,7.73-67.36,18.49-88.62,31.12-21.48,12.76-32.83,27.14-32.83,41.59,0,22.62,26.81,44.08,75.48,60.42,1.05.35,1.61,1.49,1.26,2.53-.28.84-1.06,1.36-1.9,1.36Z"/>
      <path class="cls-1" d="m446.61,245.96c-.84,0-1.62-.53-1.9-1.37-.35-1.05.22-2.18,1.27-2.53,48.94-16.16,77.02-38.36,77.02-60.93,0-29.95-48.63-58.24-126.9-73.82-1.08-.22-1.79-1.27-1.57-2.35s1.27-1.79,2.35-1.57c81.48,16.23,130.12,45.29,130.12,77.75,0,24.76-28.33,47.74-79.76,64.72-.21.07-.42.1-.63.1Z"/>
    </g>
  </g>
</svg>